<svg width="86" height="33" viewBox="0 0 86 33" fill="none" xmlns="http://www.w3.org/2000/svg">
<path d="M14.3563 16.9465L9.0544 11.623C8.22527 10.7922 6.77388 10.7926 5.94648 11.6226L0.64374 16.946C0.228311 17.361 0 17.9125 0 18.5C0 19.0875 0.228311 19.639 0.64374 20.0535L5.94562 25.3558C6.36018 25.7712 6.91207 26 7.5 26C8.08793 26 8.63982 25.7712 9.05353 25.3563L14.3563 20.0535C14.7717 19.639 15 19.0871 15 18.5C15 17.9125 14.7717 17.361 14.3563 16.9465Z" fill="white"/>
<path d="M7.5 14.5449C5.32034 14.5449 3.54492 16.3203 3.54492 18.5C3.54492 20.6796 5.32034 22.4551 7.5 22.4551C9.67966 22.4551 11.4551 20.6796 11.4551 18.5C11.4551 16.3203 9.67966 14.5449 7.5 14.5449ZM9.05569 20.0557C8.91073 20.186 8.70478 20.2 8.60745 20.1611L6.73535 19.5371C6.6123 19.4931 6.50684 19.3877 6.46289 19.2646L5.83887 17.3926C5.78613 17.2344 5.83008 17.0674 5.94434 16.9443C6.06738 16.8301 6.24319 16.7861 6.39258 16.8389L8.26465 17.4629C8.3877 17.5068 8.49316 17.6123 8.53711 17.7354L9.16116 19.6074C9.21387 19.7656 9.16995 19.9326 9.05569 20.0557ZM7.5 13.666C7.7427 13.666 7.93945 13.4692 7.93945 13.2265C7.93945 12.9839 7.7427 12.7871 7.5 12.7871C7.2573 12.7871 7.06055 12.9839 7.06055 13.2265C7.06055 13.4692 7.2573 13.666 7.5 13.666ZM2.22656 18.0605C1.98387 18.0605 1.78711 18.2573 1.78711 18.5C1.78711 18.7427 1.98387 18.9394 2.22656 18.9394C2.46926 18.9394 2.66602 18.7427 2.66602 18.5C2.66602 18.2573 2.46926 18.0605 2.22656 18.0605ZM12.7734 18.0605C12.5307 18.0605 12.334 18.2573 12.334 18.5C12.334 18.7427 12.5307 18.9394 12.7734 18.9394C13.0161 18.9394 13.2129 18.7427 13.2129 18.5C13.2129 18.2573 13.0161 18.0605 12.7734 18.0605ZM7.5 23.334C7.2573 23.334 7.06055 23.5307 7.06055 23.7734C7.06055 24.0161 7.2573 24.2129 7.5 24.2129C7.7427 24.2129 7.93945 24.0161 7.93945 23.7734C7.93945 23.5307 7.7427 23.334 7.5 23.334Z" fill="url(#paint0_linear)"/>
<path d="M22.024 26L19.744 12.848H23.248L23.896 17.48C23.944 17.864 24 18.392 24.064 19.064C24.144 19.72 24.216 20.488 24.28 21.368H24.352C24.56 20.488 24.744 19.72 24.904 19.064C25.08 18.392 25.224 17.84 25.336 17.408L26.632 12.848H28.816L30.112 17.408C30.24 17.84 30.384 18.392 30.544 19.064C30.704 19.72 30.888 20.488 31.096 21.368H31.168C31.248 20.488 31.312 19.72 31.36 19.064C31.424 18.392 31.488 17.864 31.552 17.48L32.224 12.848H35.704L33.448 26H29.92L28.408 20.648C28.248 20.024 28.12 19.456 28.024 18.944C27.944 18.416 27.864 17.88 27.784 17.336H27.688C27.592 17.88 27.496 18.4 27.4 18.896C27.32 19.392 27.184 19.976 26.992 20.648L25.456 26H22.024ZM41.8135 26.24C40.7415 26.24 39.9175 25.992 39.3415 25.496C38.7655 24.984 38.4775 24.208 38.4775 23.168V12.848H42.0775V22.736C42.0775 23.328 42.3575 23.624 42.9175 23.624C43.1575 23.624 43.4295 23.568 43.7335 23.456L44.0695 25.76C43.4615 26.08 42.7095 26.24 41.8135 26.24ZM50.6446 26.24C49.1886 26.24 48.0766 25.816 47.3086 24.968C46.5406 24.12 46.1566 22.872 46.1566 21.224V12.848H49.7566V20.6C49.7566 21.48 49.9326 22.12 50.2846 22.52C50.6366 22.92 51.1486 23.12 51.8206 23.12C52.6686 23.12 53.3246 22.8 53.7886 22.16C54.2526 21.504 54.4846 20.496 54.4846 19.136V12.848H58.0846V26H55.3486L54.9646 23.984H54.7486C54.4766 24.624 54.0046 25.16 53.3326 25.592C52.6766 26.024 51.7806 26.24 50.6446 26.24ZM62.7522 26V20.48H61.3842V18.272H65.9922V23.264H66.1602C66.9602 23.264 67.5762 22.944 68.0082 22.304C68.4402 21.664 68.6562 20.696 68.6562 19.4C68.6562 17.912 68.3442 16.872 67.7202 16.28C67.0962 15.688 66.1842 15.392 64.9842 15.392C64.1522 15.392 63.4002 15.512 62.7282 15.752C62.0562 15.976 61.4562 16.248 60.9282 16.568V13.568C61.4562 13.296 62.1202 13.056 62.9202 12.848C63.7202 12.64 64.6402 12.536 65.6802 12.536C68.0002 12.536 69.6802 13.096 70.7202 14.216C71.7762 15.336 72.3042 17.04 72.3042 19.328C72.3042 21.472 71.8082 23.12 70.8162 24.272C69.8402 25.424 68.1682 26 65.8002 26H62.7522ZM79.5904 26.312C78.6464 26.312 77.6944 26.208 76.7344 26C75.7904 25.792 74.9504 25.496 74.2144 25.112L75.2224 22.256C75.7024 22.512 76.3184 22.784 77.0704 23.072C77.8224 23.344 78.6144 23.48 79.4464 23.48C80.7424 23.48 81.3904 23.104 81.3904 22.352C81.3904 21.936 81.1424 21.616 80.6464 21.392C80.1664 21.152 79.4944 20.88 78.6304 20.576C77.7824 20.272 77.0544 19.944 76.4464 19.592C75.8384 19.24 75.3664 18.808 75.0304 18.296C74.7104 17.784 74.5504 17.144 74.5504 16.376C74.5504 15.064 75.0384 14.096 76.0144 13.472C77.0064 12.848 78.3264 12.536 79.9744 12.536C80.8704 12.536 81.6784 12.608 82.3984 12.752C83.1184 12.896 83.6784 13.08 84.0784 13.304V16.136C83.6624 15.944 83.0784 15.76 82.3264 15.584C81.5744 15.392 80.8464 15.296 80.1424 15.296C78.8144 15.296 78.1504 15.632 78.1504 16.304C78.1504 16.688 78.4064 16.992 78.9184 17.216C79.4464 17.424 80.1824 17.688 81.1264 18.008C82.3744 18.44 83.3264 18.96 83.9824 19.568C84.6544 20.16 84.9904 21.024 84.9904 22.16C84.9904 22.88 84.8224 23.56 84.4864 24.2C84.1664 24.824 83.6144 25.336 82.8304 25.736C82.0464 26.12 80.9664 26.312 79.5904 26.312Z" fill="white"/>
<defs>
<linearGradient id="paint0_linear" x1="1.78711" y1="12.5586" x2="13.2129" y2="24.2129" gradientUnits="userSpaceOnUse">
<stop stop-color="#F3BB80"/>
<stop offset="1" stop-color="#E66973"/>
</linearGradient>
</defs>
</svg>
